<?xml version="1.0" encoding="utf-8"?>
<!-- Generator: Adobe Illustrator 16.0.0, SVG Export Plug-In . SVG Version: 6.00 Build 0)  -->
<!DOCTYPE svg PUBLIC "-//W3C//DTD SVG 1.1//EN" "http://www.w3.org/Graphics/SVG/1.1/DTD/svg11.dtd">
<svg version="1.1" id="Layer_1" xmlns="http://www.w3.org/2000/svg" xmlns:xlink="http://www.w3.org/1999/xlink" x="0px" y="0px"
	 width="283.887px" height="109.475px" viewBox="0 0 283.887 109.475" enable-background="new 0 0 283.887 109.475"
	 xml:space="preserve">
<g>
	<g>
		<path fill="#FFFFFF" d="M25.612,58.951c0,5.365,0.425,8.635,1.278,9.805c0.851,1.172,3.427,1.756,7.728,1.756
			c0.256,0,0.745-0.063,1.469-0.191c0.297-0.041,0.511-0.063,0.638-0.063v12.008c-1.576,0.17-3.204,0.297-4.886,0.383
			c-1.683,0.084-3.46,0.127-5.333,0.127c-6.473,0-10.752-0.957-12.838-2.873c-2.086-1.916-3.13-6.365-3.13-13.35V34.105H0V21.459
			h10.539V0h15.074v21.459h11.113v12.646H25.612V58.951z"/>
		<path fill="#FFFFFF" d="M69.939,30.211l0.766-0.256c0.852-3.066,2.235-5.43,4.152-7.09c1.916-1.66,4.236-2.49,6.962-2.49
			c3.107,0,5.674,1.021,7.696,3.064c2.022,2.045,3.034,4.643,3.034,7.793s-1.001,5.727-3.002,7.727
			c-2.002,2.004-4.621,3.004-7.856,3.004c-2.427,0-4.567-0.713-6.419-2.141c-1.853-1.426-3.333-3.502-4.439-6.227l-0.894,0.383
			v35.576h8.495v12.711H46.243V69.555h8.495V34.105h-8.495V21.459h23.696V30.211z"/>
		<path fill="#FFFFFF" d="M161.529,71.662v4.982c0,5.875-0.277,10.24-0.83,13.092c-0.554,2.854-1.491,5.281-2.811,7.283
			c-2.597,4.043-6.206,7.131-10.826,9.262c-4.621,2.127-10.039,3.193-16.256,3.193c-5.578,0-10.677-0.555-15.296-1.662
			c-4.621-1.107-8.847-2.768-12.679-4.982V88.141c4.556,2.768,8.793,4.832,12.711,6.195c3.916,1.363,7.515,2.045,10.793,2.045
			c6.856,0,11.912-1.205,15.17-3.609c3.257-2.406,4.886-6.164,4.886-11.273V75.75c-2.555,2.598-5.461,4.578-8.718,5.939
			c-3.258,1.363-6.718,2.045-10.379,2.045c-9.028,0-16.438-3.004-22.228-9.006c-5.791-6.004-8.686-13.646-8.686-22.93
			c0-9.027,2.938-16.607,8.814-22.738s13.243-9.197,22.1-9.197c3.618,0,7.004,0.67,10.155,2.012c3.15,1.342,6.132,3.375,8.941,6.1
			v-6.516h23.633v12.646h-8.495V71.662z M111.839,51.926c0,5.238,1.67,9.58,5.013,13.029s7.505,5.174,12.487,5.174
			c5.067,0,9.261-1.713,12.582-5.141s4.982-7.781,4.982-13.063c0-5.279-1.683-9.654-5.047-13.125
			c-3.362-3.471-7.535-5.205-12.518-5.205c-4.94,0-9.092,1.734-12.455,5.205S111.839,46.646,111.839,51.926z"/>
		<path fill="#FFFFFF" d="M200.81,58.951c0,5.365,0.426,8.635,1.278,9.805c0.851,1.172,3.427,1.756,7.728,1.756
			c0.257,0,0.745-0.063,1.47-0.191c0.297-0.041,0.511-0.063,0.639-0.063v12.008c-1.576,0.17-3.205,0.297-4.887,0.383
			c-1.682,0.084-3.46,0.127-5.333,0.127c-6.473,0-10.752-0.957-12.838-2.873s-3.13-6.365-3.13-13.35V34.105h-10.538V21.459h10.538V0
			h15.073v21.459h11.114v12.646H200.81V58.951z"/>
		<path fill="#FFFFFF" d="M245.137,30.211l0.767-0.256c0.851-3.066,2.235-5.43,4.151-7.09s4.236-2.49,6.962-2.49
			c3.107,0,5.673,1.021,7.696,3.064c2.022,2.045,3.034,4.643,3.034,7.793s-1.001,5.727-3.002,7.727
			c-2.002,2.004-4.621,3.004-7.856,3.004c-2.427,0-4.566-0.713-6.419-2.141c-1.853-1.426-3.332-3.502-4.438-6.227l-0.895,0.383
			v35.576h8.494v12.711h-32.19V69.555h8.495V34.105h-8.495V21.459h23.696V30.211z"/>
	</g>
	<circle fill="#F05F5A" cx="276.708" cy="75.086" r="7.179"/>
</g>
</svg>
